<svg width="280" height="240" viewBox="0 0 280 240" fill="none" xmlns="http://www.w3.org/2000/svg">
<g opacity="0.48">
<circle cx="144.5" cy="123.5" r="56.5" fill="white"/>
<circle cx="144.5" cy="123.5" r="56.5" fill="url(#paint0_radial)" fill-opacity="0.7"/>
</g>
<path d="M108.215 166.81C110.668 137.836 117.171 112.035 125.879 97.3233C132.992 85.3053 144.693 81.3303 148.027 84.5823L157.675 95.6931L164.845 109.781L168.93 123.774L174.274 135.365C180.855 148.303 182.598 156.4 183.776 161.867C183.917 162.521 184.049 163.137 184.181 163.72C173.979 173.787 159.965 180 144.5 180C130.686 180 118.031 175.043 108.215 166.81Z" fill="white"/>
<path d="M108.215 166.81C110.668 137.836 117.171 112.035 125.879 97.3233C132.992 85.3053 144.693 81.3303 148.027 84.5823L157.675 95.6931L164.845 109.781L168.93 123.774L174.274 135.365C180.855 148.303 182.598 156.4 183.776 161.867C183.917 162.521 184.049 163.137 184.181 163.72C173.979 173.787 159.965 180 144.5 180C130.686 180 118.031 175.043 108.215 166.81Z" fill="url(#paint1_linear)" fill-opacity="0.7"/>
<path d="M105.007 157.484C104.548 160.078 104.212 161.508 103.984 162.902L103.612 162.53C103.772 161.127 104.23 160.031 104.58 157.418C104.931 154.804 105.366 151.631 105.95 148.003C106.531 144.376 107.227 140.287 108.117 135.848C109.014 131.412 110.05 126.613 111.417 121.594C112.103 119.086 112.858 116.52 113.732 113.921C114.603 111.325 115.601 108.691 116.836 106.095C118.055 103.519 119.41 100.945 120.938 98.4264C122.465 95.9075 124.161 93.4327 126.12 91.1158C128.077 88.8034 130.274 86.6073 132.886 84.8433C134.189 83.9636 135.607 83.207 137.132 82.6617C138.656 82.1189 140.306 81.8184 141.965 81.8757C143.622 81.9272 145.269 82.3287 146.753 83.0147C148.243 83.6951 149.579 84.623 150.768 85.6691C151.955 86.7191 153.01 87.8858 153.956 89.1027C154.415 89.6905 154.874 90.2776 155.331 90.8633L156.683 92.6719C158.444 95.0956 160.096 97.5707 161.587 100.112C163.084 102.647 164.388 105.266 165.489 107.919C166.578 110.578 167.408 113.289 168.071 115.953C168.731 118.617 169.241 121.226 169.889 123.695C170.533 126.162 171.342 128.497 172.417 130.63C172.675 131.168 172.962 131.686 173.247 132.2C173.54 132.723 173.83 133.241 174.118 133.754C174.683 134.807 175.221 135.838 175.706 136.867C177.658 140.979 179.094 144.888 180.243 148.384C181.378 151.886 182.217 154.981 182.855 157.542C183.483 160.105 183.999 162.26 184.273 163.645L183.901 164.017C183.567 162.646 183.233 160.165 182.498 157.637C181.768 155.109 180.815 152.058 179.561 148.62C178.312 145.182 176.767 141.347 174.718 137.357C174.206 136.358 173.659 135.355 173.087 134.352C172.788 133.848 172.485 133.339 172.18 132.826C171.868 132.303 171.554 131.775 171.266 131.224C170.076 129.043 169.15 126.622 168.408 124.106C167.679 121.584 167.111 118.983 166.402 116.388C165.695 113.795 164.826 111.205 163.725 108.659C161.549 103.554 158.463 98.6483 154.95 93.9563C154.509 93.3734 154.067 92.7894 153.625 92.2045C153.164 91.621 152.703 91.0361 152.241 90.4504C151.35 89.3146 150.381 88.2603 149.317 87.3275C148.252 86.4 147.088 85.6073 145.836 85.0436C144.588 84.4742 143.25 84.1608 141.899 84.124C140.547 84.0899 139.185 84.3268 137.875 84.7823C136.565 85.2438 135.306 85.9015 134.122 86.6929C131.747 88.2767 129.658 90.329 127.782 92.5259C124.045 96.9555 121.058 101.939 118.594 106.946C116.173 111.937 114.467 117.113 112.997 122.042C111.557 126.988 110.358 131.721 109.345 136.114C108.345 140.508 107.48 144.553 106.77 148.151C106.065 151.749 105.468 154.891 105.007 157.484Z" fill="#1A1A1A"/>
<path d="M148.855 127.174C148.855 131.838 144.313 129.627 139.157 129.627" stroke="black" stroke-width="2" stroke-linecap="round" stroke-linejoin="round"/>
<path d="M138.043 109.226C137.462 109.218 136.964 110.486 136.929 112.058C136.894 113.63 137.336 114.912 137.917 114.92C138.497 114.929 138.996 113.661 139.031 112.088C139.066 110.516 138.624 109.235 138.043 109.226Z" fill="#111111"/>
<path d="M146.146 109.242C145.63 109.24 145.205 110.514 145.196 112.086C145.187 113.659 145.598 114.935 146.113 114.937C146.629 114.938 147.055 113.665 147.064 112.092C147.073 110.519 146.662 109.243 146.146 109.242Z" fill="#111111"/>
<path d="M151.036 70.2121C160.578 71.3301 169.635 75.0361 177.244 80.9361C184.854 86.8361 190.732 94.7094 194.253 103.719L190.964 105.287C187.545 96.539 181.997 87.9691 174.608 82.2405C167.22 76.5119 160.119 72.8443 150.855 71.7588L151.036 70.2121Z" fill="#FDFDFD"/>
<path d="M195.053 106.03L191.707 107.517C192.302 108.706 192.451 111.234 192.451 112.349L196.168 111.234C196.168 110.044 195.424 107.269 195.053 106.03Z" fill="#FDFDFD"/>
<defs>
<radialGradient id="paint0_radial" cx="0" cy="0" r="1" gradientUnits="userSpaceOnUse" gradientTransform="translate(144.5 123.5) rotate(90) scale(56.5)">
<stop offset="0.390788" stop-color="#DFFFFD"/>
<stop offset="0.953125" stop-color="#5EEBF4"/>
</radialGradient>
<linearGradient id="paint1_linear" x1="162.065" y1="114.778" x2="93.3573" y2="156.177" gradientUnits="userSpaceOnUse">
<stop offset="0.140625" stop-color="#5BF398"/>
<stop offset="1" stop-color="#60C3EE"/>
</linearGradient>
</defs>
</svg>
